<svg width="340" height="138" viewBox="0 0 340 138" fill="none" xmlns="http://www.w3.org/2000/svg">
<g clip-path="url(#clip0_18_30)">
<rect width="340" height="138" fill="white"/>
<path d="M233.319 133.002C232.593 133.002 231.953 132.746 231.399 132.234C230.865 131.722 230.599 130.911 230.599 129.802V113.002H225.895V110.602H233.319V129.642C233.319 129.983 233.404 130.228 233.575 130.378C233.745 130.527 234.033 130.602 234.439 130.602H238.695V133.002H233.319Z" fill="#CDD5B0"/>
<path d="M214.823 133C212.945 133 211.569 132.605 210.695 131.816C209.82 131.005 209.383 129.693 209.383 127.88V122.12C209.383 120.285 209.777 118.973 210.567 118.184C211.356 117.395 212.668 117 214.503 117H216.007C217.521 117 218.663 117.427 219.431 118.28C220.22 119.112 220.615 120.339 220.615 121.96V126.12H212.103V128.52C212.103 129.181 212.305 129.693 212.711 130.056C213.116 130.419 213.713 130.6 214.503 130.6H219.591V133H214.823ZM217.959 121.32C217.959 120.765 217.777 120.307 217.415 119.944C217.052 119.581 216.593 119.4 216.039 119.4H214.183C213.415 119.4 212.871 119.581 212.551 119.944C212.252 120.285 212.103 120.797 212.103 121.48V123.72H217.959V121.32Z" fill="#CDD5B0"/>
<path d="M198.822 113.002C198.48 113.002 198.203 113.098 197.99 113.29C197.798 113.46 197.702 113.684 197.702 113.962V117.002H202.854V119.402H197.702V130.602H201.574V133.002H192.262V130.602H194.982V119.402H192.262V117.002H194.982V114.122C194.982 113.034 195.291 112.18 195.91 111.562C196.528 110.922 197.328 110.602 198.31 110.602H203.174V113.002H198.822Z" fill="#CDD5B0"/>
<path d="M177.156 117V117.768C177.817 117.256 178.67 117 179.716 117H180.868C182.745 117 184.121 117.405 184.996 118.216C185.87 119.005 186.308 120.307 186.308 122.12V127.88C186.308 129.672 185.86 130.973 184.964 131.784C184.089 132.595 182.724 133 180.868 133H177.316V138.44H174.596V117H177.156ZM179.396 119.4C178.692 119.4 178.169 119.592 177.828 119.976C177.486 120.339 177.316 120.733 177.316 121.16V130.6H181.188C181.977 130.6 182.574 130.419 182.98 130.056C183.385 129.693 183.588 129.181 183.588 128.52V121.48C183.588 120.819 183.385 120.307 182.98 119.944C182.574 119.581 181.977 119.4 181.188 119.4H179.396Z" fill="#CDD5B0"/>
<path d="M164.674 110.602V113.482H161.634V110.602H164.674ZM157.09 119.402V117.002H164.514V130.602H169.25V133.002H161.794V119.402H157.09Z" fill="#CDD5B0"/>
<path d="M146.018 133.002C144.162 133.002 142.732 132.554 141.73 131.658C140.748 130.74 140.258 129.375 140.258 127.562V116.042C140.258 114.228 140.748 112.874 141.73 111.978C142.732 111.06 144.162 110.602 146.018 110.602H150.53V113.034H145.698C144.908 113.034 144.268 113.268 143.778 113.738C143.287 114.207 143.042 114.772 143.042 115.434V128.17C143.042 128.831 143.287 129.396 143.778 129.866C144.268 130.335 144.908 130.57 145.698 130.57H148.834V123.626H146.05V121.226H151.49V133.002H146.018Z" fill="#CDD5B0"/>
<path d="M108.223 130.6V119.4H105.887V117H110.783V117.864C111.487 117.288 112.34 117 113.343 117H116.639V119.56H113.023C112.34 119.56 111.828 119.784 111.487 120.232C111.145 120.659 110.964 121.096 110.943 121.544V130.6H114.431V133H105.887V130.6H108.223Z" fill="#CDD5B0"/>
<path d="M93.8541 133C91.9767 133 90.6007 132.605 89.7261 131.816C88.8514 131.005 88.4141 129.693 88.4141 127.88V122.12C88.4141 120.285 88.8087 118.973 89.5981 118.184C90.3874 117.395 91.6994 117 93.5341 117H95.0381C96.5527 117 97.6941 117.427 98.4621 118.28C99.2514 119.112 99.6461 120.339 99.6461 121.96V126.12H91.1341V128.52C91.1341 129.181 91.3367 129.693 91.7421 130.056C92.1474 130.419 92.7447 130.6 93.5341 130.6H98.6221V133H93.8541ZM96.9901 121.32C96.9901 120.765 96.8087 120.307 96.4461 119.944C96.0834 119.581 95.6247 119.4 95.0701 119.4H93.2141C92.4461 119.4 91.9021 119.581 91.5821 119.944C91.2834 120.285 91.1341 120.797 91.1341 121.48V123.72H96.9901V121.32Z" fill="#CDD5B0"/>
<path d="M81.9488 121.801V124.201H71.5488V121.801H81.9488Z" fill="#CDD5B0"/>
<path d="M65.1791 127.562C65.1791 129.332 64.6884 130.687 63.7071 131.626C62.7471 132.543 61.4458 133.002 59.8031 133.002H59.1631C57.5204 133.002 56.2084 132.543 55.2271 131.626C54.2671 130.687 53.7871 129.332 53.7871 127.562V116.042C53.7871 114.25 54.2671 112.895 55.2271 111.978C56.1871 111.06 57.4991 110.602 59.1631 110.602H59.8031C61.4671 110.602 62.7791 111.06 63.7391 111.978C64.6991 112.895 65.1791 114.25 65.1791 116.042V127.562ZM62.4591 115.434C62.4591 114.772 62.2031 114.207 61.6911 113.738C61.2004 113.247 60.5711 113.002 59.8031 113.002H59.1631C58.3951 113.002 57.7551 113.247 57.2431 113.738C56.7524 114.207 56.5071 114.772 56.5071 115.434V124.106L62.4591 115.434ZM56.5071 128.17C56.5071 128.831 56.7524 129.407 57.2431 129.898C57.7551 130.367 58.3951 130.602 59.1631 130.602H59.8031C60.5711 130.602 61.2004 130.367 61.6911 129.898C62.2031 129.407 62.4591 128.831 62.4591 128.17V119.53L56.5071 128.17Z" fill="#CDD5B0"/>
<path d="M47.8979 127.562C47.8979 129.332 47.4072 130.687 46.4259 131.626C45.4659 132.543 44.1645 133.002 42.5219 133.002H41.8819C40.2392 133.002 38.9272 132.543 37.9459 131.626C36.9859 130.687 36.5059 129.332 36.5059 127.562V116.042C36.5059 114.25 36.9859 112.895 37.9459 111.978C38.9059 111.06 40.2179 110.602 41.8819 110.602H42.5219C44.1859 110.602 45.4979 111.06 46.4579 111.978C47.4179 112.895 47.8979 114.25 47.8979 116.042V127.562ZM45.1779 115.434C45.1779 114.772 44.9219 114.207 44.4099 113.738C43.9192 113.247 43.2899 113.002 42.5219 113.002H41.8819C41.1139 113.002 40.4739 113.247 39.9619 113.738C39.4712 114.207 39.2259 114.772 39.2259 115.434V124.106L45.1779 115.434ZM39.2259 128.17C39.2259 128.831 39.4712 129.407 39.9619 129.898C40.4739 130.367 41.1139 130.602 41.8819 130.602H42.5219C43.2899 130.602 43.9192 130.367 44.4099 129.898C44.9219 129.407 45.1779 128.831 45.1779 128.17V119.53L39.2259 128.17Z" fill="#CDD5B0"/>
<path d="M30.6166 127.562C30.6166 129.332 30.1259 130.687 29.1446 131.626C28.1846 132.543 26.8833 133.002 25.2406 133.002H24.6006C22.9579 133.002 21.6459 132.543 20.6646 131.626C19.7046 130.687 19.2246 129.332 19.2246 127.562V116.042C19.2246 114.25 19.7046 112.895 20.6646 111.978C21.6246 111.06 22.9366 110.602 24.6006 110.602H25.2406C26.9046 110.602 28.2166 111.06 29.1766 111.978C30.1366 112.895 30.6166 114.25 30.6166 116.042V127.562ZM27.8966 115.434C27.8966 114.772 27.6406 114.207 27.1286 113.738C26.6379 113.247 26.0086 113.002 25.2406 113.002H24.6006C23.8326 113.002 23.1926 113.247 22.6806 113.738C22.1899 114.207 21.9446 114.772 21.9446 115.434V124.106L27.8966 115.434ZM21.9446 128.17C21.9446 128.831 22.1899 129.407 22.6806 129.898C23.1926 130.367 23.8326 130.602 24.6006 130.602H25.2406C26.0086 130.602 26.6379 130.367 27.1286 129.898C27.6406 129.407 27.8966 128.831 27.8966 128.17V119.53L21.9446 128.17Z" fill="#CDD5B0"/>
<path d="M8.3752 133.002V128.01H1.7832V125.258L5.2072 110.602H7.7992L4.5352 125.674H8.3752V118.378H11.0952V125.674H13.4952V128.01H11.0952V133.002H8.3752Z" fill="#CDD5B0"/>
<path d="M53.5 27L106.761 98.25H0.239437L53.5 27Z" fill="#CDD5B0"/>
<path d="M107 21L164.158 98.25H49.8423L107 21Z" fill="#CDD5B0"/>
<path d="M164.5 2L222.957 91.25H106.043L164.5 2Z" fill="#CDD5B0"/>
<path d="M209.5 9L267.957 98.25H151.043L209.5 9Z" fill="#CDD5B0"/>
<path d="M272.5 9L330.957 98.25H214.043L272.5 9Z" fill="#CDD5B0"/>
<path d="M290.5 51.75V29.25C290.5 26.7647 292.515 24.75 295 24.75H296.125C297.541 24.75 298.875 24.0831 299.725 22.95L304.72 16.29C304.975 15.9501 305.375 15.75 305.8 15.75H320.2C320.625 15.75 321.025 15.9501 321.28 16.29L326.275 22.95C327.125 24.0831 328.459 24.75 329.875 24.75H331C333.485 24.75 335.5 26.7647 335.5 29.25V51.75C335.5 54.2353 333.485 56.25 331 56.25H295C292.515 56.25 290.5 54.2353 290.5 51.75Z" stroke="#F0CFFE" stroke-width="5" stroke-linecap="round" stroke-linejoin="round"/>
<path d="M313 47.25C317.97 47.25 322 43.2205 322 38.25C322 33.2795 317.97 29.25 313 29.25C308.029 29.25 304 33.2795 304 38.25C304 43.2205 308.029 47.25 313 47.25Z" stroke="#F0CFFE" stroke-width="5" stroke-linecap="round" stroke-linejoin="round"/>
</g>
<defs>
<clipPath id="clip0_18_30">
<rect width="340" height="138" fill="white"/>
</clipPath>
</defs>
</svg>
