<?xml version="1.0" encoding="UTF-8"?>
<svg id="Ebene_1" data-name="Ebene 1" xmlns="http://www.w3.org/2000/svg" viewBox="0 0 332.3087 99.7422">
  <defs>
    <style>
      .cls-1 {
        fill: #fff;
      }
    </style>
  </defs>
  <path class="cls-1" d="M197.6931,33.6161c1.0659,1.0911,2.196,1.8907,3.3505,2.6396,2.0602,1.3363,3.8767,2.9246,5.5519,4.7258,2.2348,2.403,4.903,4.1821,8.1562,4.9591,1.1623.2776,2.2375.759,3.2604,1.385.6708.4104,1.4015.723,2.1055,1.0791.4636.2345.9276.4685,1.3605.6871.0837.7569-.441.9529-.8991,1.2388-1.1192-.1343-2.1545-.54-3.0925-1.1691-1.1093-.7439-2.305-1.2563-3.6001-1.5772-3.3003-.8176-6.0561-2.6128-8.3352-5.0566-1.8151-1.9463-3.7701-3.6511-6.0153-5.082-1.4932-.9517-2.8725-2.1025-4.2112-3.2692-1.0553-.9197-2.145-1.7486-3.4315-2.2954-1.3726-.5833-2.4883-1.4081-3.229-2.7664-.719-1.3187-1.9317-2.1398-3.3074-2.7008-.7926-.3232-1.6062-.5944-2.4022-.9097-1.6053-.6357-2.8565-1.6849-3.451-3.3308-.5499-1.5225-1.639-2.4761-2.9297-3.3446-1.7469-1.1753-3.4266-2.452-5.1162-3.7106-2.3785-1.7716-4.7245-3.5869-7.1162-5.3402-.8467-.6207-1.7541-1.1784-2.6902-1.6536-2.658-1.3491-5.1584-2.9199-7.3971-4.8999-.5911-.5228-1.2547-.963-1.8761-1.4524-.4806-.3784-.9669-.3716-1.4606-.0506-.3312.2154-.6572.4406-.9711.6804-1.5189,1.1605-3.0208,2.3437-4.5516,3.4883-2.1636,1.6177-4.3316,3.2304-6.5264,4.8051-2.5705,1.8443-5.1115,3.7891-7.664,5.6576-1.1661.8536-2.1497,1.7931-3.2638,2.7198-.7586.631-1.4529,1.2335-2.2778,1.7679-.9688.6275-1.4482.5064-2.4579-.29-.1406-.1109-.2996-.1983-.513-.3378-.27.3369-.5211.6338-.7546.9441-2.0298,2.6967-4.3774,5.1002-6.8501,7.384-.5784.5342-1.2351.9868-1.8743,1.4514-1.3828,1.0051-2.9142,1.497-4.642,1.3341-.6547-.0617-1.3181-.0834-1.9749-.0576-1.1024.0433-2.0462.4636-2.7632,1.3295-.3363.4062-.6624.8209-1.0042,1.2224-1.0781,1.2666-2.3437,2.2979-3.782,3.1435-3.8822,2.2824-7.964,4.1064-12.2939,5.3404-2.9388.8376-5.6568,2.1542-8.3423,3.5695-1.3399.7061-2.7122,1.3503-4.0629,2.0362-1.643.8343-3.3016,1.6419-4.9101,2.5387-1.2797.7135-2.629,1.2259-4.0252,1.6142-2.0174.5609-3.7752-.0507-5.3067-1.3794-.2021-.1753-.2902-.5756-.2865-.8698.0043-.3379.5246-.6262.9348-.5161.5679.1524,1.1372.3388,1.6647.5953,1.4029.6821,2.7856.7021,4.1839.0119.5315-.2623,1.0783-.4941,1.6055-.7643,4.3959-2.2535,8.7671-4.5567,13.1947-6.7458,1.526-.7545,3.1711-1.289,4.798-1.8113,1.1907-.3822,2.1065-.9317,2.6271-2.1461.541-1.2623,1.2413-2.4563,1.8964-3.7274-2.8132-4.2282-7.0477-6.7991-10.566-10.2389-.3553.3981-.6392.6638-.8604.9742-.6121.8586-1.228,1.7171-1.7891,2.6091-2.2266,3.5399-5.0636,6.573-7.9214,9.589-1.1892,1.255-2.5987,2.2208-4.0873,3.0888-1.6498.962-3.4104,1.3324-5.3091,1.2216-2.2944-.1338-4.1952-1.0341-5.7045-2.7613-.3023-.3459-.5791-.7143-.948-1.172-.3228.202-.648.3755-.9397.5937-.8441.6313-1.6571,1.3053-2.5155,1.9158-.9272.6594-1.9705,1.0694-3.1101,1.1763-1.4126.1326-2.4334-.4517-3.0186-1.7456-.2419-.5348-.3962-1.1093-.634-1.7908-.3858.2205-.7211.3815-1.0237.5901-1.681,1.1592-3.5302,1.3791-5.483.9847-2.0098-.4058-3.9573-1.0222-5.8141-1.8918-2.9299-1.3722-5.7259-2.9798-8.3924-4.8177-2.6915-1.855-4.8251-4.2772-6.9435-6.718-.1659-.1911-.3161-.4507-.3421-.6926-.0248-.2303.0715-.5176.213-.7059.088-.1171.5369-.2012.6903-.1453.364.1328.5957.319.8848.5678.648.5578,1.2587,1.1612,1.8596,1.7707,4.621,4.6874,10.082,8.0305,16.3036,10.1291.9867.3328,2.0469.5133,3.0873.6067,1.6089.1443,2.963-.4827,4.0458-1.6825.3528-.391.6744-.8149,1.0591-1.1711.5491-.5084,1.341-.271,1.5638.456.0953.3112.1087.6471.1657.9707.1257.7136.2106,1.4383.3936,2.1371.3049,1.164.9167,1.465,2.0809,1.0263.5507-.2075,1.0992-.4695,1.579-.8061.9694-.68,1.8944-1.4237,2.8311-2.1496.3638-.282.689-.6178,1.0689-.874.5646-.3808,1.155-.2689,1.5571.2853.2304.3175.3863.688.596,1.0219,1.4742,2.3484,4.2866,3.5407,7.0151,2.8985.8227-.1936,1.6422-.5157,2.3795-.9283.9146-.512,1.8389-1.0783,2.5901-1.7976,2.7116-2.5966,5.4659-5.1609,7.6172-8.2793,1.2351-1.7903,2.51-3.5531,3.7714-5.3251.1904-.2674.3771-.5477.615-.7686.3668-.3407.8213-.4621,1.2684-.1755.4968.3184.9782.6683,1.4307,1.047,3.1842,2.6654,6.4188,5.2753,9.2746,8.3078.0871.0925.1949.2208.4037.355.3367-.203.7688-.4729,1.1165-.7453,1.3-1.0183,2.5316-2.1107,3.5281-3.4432.1965-.2627.4044-.5237.6433-.7463.4192-.3905,1.066-.3937,1.4027.0664.3836.5241.7048,1.1084.9657,1.7048.5257,1.202.9303,2.4592,1.72,3.7102.386-.3456.7553-.5915,1.0153-.923,1.4698-1.8741,3.4336-2.7253,5.7374-2.4311,2.4825.317,4.3562-.7072,6.0716-2.252,2.4038-2.1648,4.6381-4.4955,6.6709-7.0158.3722-.4614.7295-.9417,1.151-1.3549.8181-.802,1.4186-.8061,2.4324-.0936.1583.1113.3086.2347.4704.3405.0492.0322.1417.1093.2637.0914s.8792-.5189,1.2531-.8701c3.5743-3.3566,7.6998-5.9755,11.6804-8.7908,2.259-1.5977,4.472-3.2609,6.6929-4.9118,1.4809-1.1008,2.9374-2.2345,4.4094-3.3472.3151-.2382.6352-.4768.9788-.6692,1.7933-1.0049,2.2549-.9653,3.7425.2096.569.4494,1.1489.8869,1.6954,1.3625,1.5025,1.3072,3.1505,2.4155,4.9432,3.2511,3.7419,1.744,7.0042,4.2021,10.204,6.7402,2.3261,1.8451,4.6328,3.7032,7.1671,5.2598.3927.2412.7629.5188,1.1475.7736.9613.6369,1.6968,1.4543,2.0763,2.5628.5574,1.628,1.7206,2.6084,3.3322,3.1072.1259.0389.2492.0864.3753.1248,2.1931.6675,4.1154,1.7591,5.5868,3.6974.3854-.1905.7308-.3349,1.0498-.5239.8616-.5104,1.7713-.9221,2.7726-.9787,2.6702-.1508,4.7136-1.5375,6.6083-3.2439.4407-.3969.8513-.8291,1.3076-1.2065,1.041-.861,2.2045-1.1074,3.5146-.6856,1.2166.3916,2.26,1.0734,3.2369,1.8619,1.0039.8104,2.1319,1.3174,3.4027,1.4661.6457.0756,1.3082.0726,1.9581.0299.7879-.0517,1.5686-.2037,2.3558-.275,1.1803-.1068,2.2415.1934,3.0316,1.1173,1.0676,1.2484,2.4862,1.6552,4.0356,1.8014,1.3123.1238,2.6236.2577,3.9351.389,1.3357.1337,2.5862.4932,3.6452,1.3684.2028.1675.4198.3203.6423.4609.9789.6187,2.0762.7998,3.2072.8607.9642.0519,1.5537-.6458,2.2387-1.1281,2.7627-1.9451,5.1538-4.3088,7.4978-6.7236.5048-.5201.9876-1.069,1.5396-1.5344,1.0239-.8632,2.0427-.7735,2.9588.2106.2234.24.429.504.6017.7825.5015.809,1.161,1.3615,2.0742,1.7227.7146.2826,1.3885.7688,1.9585,1.2963,1.4721,1.3621,3.1316,2.4029,4.9617,3.1955,1.7098.7406,3.2494,1.7433,4.6006,3.0288,1.0102.9612,2.1235,1.7689,3.3886,2.3679,1.1395.5396,2.1735,1.2374,3.0812,2.121.2237.2177.5938.4455.9518.7122.3195-.9037.4428-1.3427.6026-1.96,1.0561-4.0816,2.1111-8.1635,3.1731-12.2436.1326-.5092.2822-1.0163.4641-1.5095.1429-.3874.4052-.7073.8721-.6556.4749.0526.6377.4162.6552.8412.0162.3944.013.7916-.0137,1.1854-.3073,4.5374-.623,9.0741-.9303,13.6115-.0528.7799-.1226,1.6213-.1581,2.3636,1.3119.7894,2.5397,1.3374,3.9474,1.5216,2.6288.3439,5.2463.3274,7.8893.1367,2.6265-.1896,5.27-.2366,7.9044-.2062,6.5246.0755,13.0495.1832,19.5718.3698,5.0776.1453,10.1504.1383,15.2251-.0492.759-.0281,2.3599-.1253,2.4074.3122s-1.2537.6068-1.8894.6422c-2.7637.1539-5.5299.4313-8.2925.4034-6.5909-.0665-13.1798-.3331-19.7707-.4116-3.2247-.0384-6.4547.1157-9.678.2701-2.5661.1229-5.1228.4622-7.6891.5541-3.2273.1156-6.6663.22-9.7222-1.3301-.0834.3837-.0618.4896-.1053.7369-.2578,1.466-1.6483,24.4301-1.6514,27.096.6298-1.1064.6942-2.3025.8819-3.4477.3621-2.2098.6261-4.4356.9276-6.6552.3223-2.3734.5207-2.6634,2.8819-2.9918,2.4771-.3445,4.974-.5516,7.4657-.7828.6426-.0596,1.3185.0302,1.3825.5195s-1.1036.6465-1.7439.7352c-1.8275.2533-3.6596.4752-5.4839.7486-.9018.1352-1.7906.3566-2.7018.5424-.5968,1.6536-.7166,3.2977-.9506,4.9185-.3858,2.6731-.7581,5.3484-1.171,8.0173-.1204.7782-.3375,1.5442-.5528,2.3038-.125.4407-.3165.8659-.5106,1.283-.2344.5038-.5815.8939-1.2019.8567-.4455-.0268-.8227-.4787-.8896-1.1592-.0643-.6536-.0861-1.3186-.047-1.9739.2979-5.0005.6032-10.0006.9298-14.9993.318-4.8665.6671-9.7309.9928-14.5969.035-.5219.0048-1.0482.0048-1.5143-.7545-.272-1.0363-.4095-1.6839-.581-.2162.617-.4449,1.2261-.644,1.8447-1.131,3.5138-2.3212,7.0066-3.8696,10.3627-.5515,1.1952-1.1767,2.3574-1.7972,3.5192-.2472.4629-.5554.8967-.8673,1.3206-.3606.4901-.7822.9452-1.4762.7415-.5881-.1726-.7595-.6869-.8293-1.2317-.1256-.9798-.2612-1.9592-.3507-2.9426-.1488-1.6367-.2865-4.1259-.4148-5.7485-.3286.6664-.5797,1.1217-.7358,1.3848-.7817,1.3173-1.7513,2.4689-2.9522,3.4264-.8961.7144-1.8989,1.1835-3.029,1.3659-.9529.1539-1.7852.118-2.652-.2405-.2244-.0928-.3618-.7642-.3933-.9899-.0276-.1979.1267-.6409.2746-.6806.3651-.0979.7769-.0138,1.1662.0184,1.5717.1298,2.8198-.3677,3.9651-1.3782,1.5851-1.3986,2.5631-3.1581,3.1993-5.1362.2823-.878.5268-1.7681.8103-2.6456.1534-.4749.4754-.8118,1.0058-.796.5251.0157.8772.3665.9772.8392.1904.8994.3658,1.8128.421,2.728.1469,2.4341.2246,4.8723.3356,7.3086.0143.316.0622.6305.121,1.2028.3163-.5008.4678-.6725.5719-.8751.6938-1.351,1.2481-2.2932,1.7156-3.5915,1.1158-3.0984,2.1592-6.223,3.2186-9.3415.1452-.4274.215-.8804.3231-1.3353-1.473-1.4024-2.9305-2.6895-4.7136-3.621-1.092-.5705-2.0836-1.3877-3.0012-2.2246-1.3791-1.2575-2.8792-2.288-4.5597-3.0947-1.2425-.5965-2.8228-1.5662-4.1997-2.311.1453.4133.4585.9682.5762,1.2195.419.8946.8636,1.7781,1.3278,2.6502.6276,1.1787,1.3945,2.2335,2.6286,2.8691.4055.2088,1.0587.6024.7034,1.1553s-2.306-.0728-3.0992-.9864c-.7252-.8353-1.295-1.8192-1.8477-2.7865-.4888-.8556-.8524-1.7821-1.2862-2.67-.2021-.4137-.3957-.8427-.6685-1.2086-1.337-1.7937-2.6973-3.5701-4.0589-5.3453-.0693-.0903-.3115-.3098-.4627-.2548s-.6802.5075-.9964.8136c-.7577.7334-1.4957,1.4879-2.2244,2.2505-4.64,4.8559-10.1664,8.5726-15.7436,12.2175-.8152.5328-1.7646.8654-2.6681,1.2528-.1344.0576-.3546.0672-.5138-.1531s-.0137-.5624.1266-.6671c2.0059-1.4979,4.036-2.9633,6.0583-4.4393.5173-.3776,1.0272-.7655,1.4978-1.1168-1.1543-.7263-2.1943-1.4051-3.2606-2.0399-.4454-.2652-.9293-.5611-1.4252-.6298-2.1524-.2981-4.3108-.6287-6.4768-.725-1.3684-.0608-2.7405.3263-4.0227.8974-1.0234.4557-2.0372.9374-3.0805,1.3427-2.9921,1.1623-6.0894,1.6982-9.2957,1.3305-.9066-.104-1.7951-.3923-2.6817-.6333-.5068-.1377-.9858-.3757-1.4904-.5239-.7549-.2217-1.4282-.0332-2.0134.4906-.6461.5783-1.146,1.2555-1.5669,2.2289ZM196.6647,32.6433c.3912-.5965.6562-1.0516.97-1.4701,1.2394-1.6528,2.5416-2.0556,4.4924-1.4132.1875.0617.3788.1171.5576.1988,1.7265.7886,3.5438.8855,5.4088.8056,3.975-.1701,7.4524-1.891,11.0466-3.3454-.7683-1.6676-2.0322-2.0479-3.6241-1.7081-.193.0412-.3863.0807-.5789.1235-2.6924.5981-5.0723-.0305-7.1871-1.7862-.6046-.5019-1.2387-.9926-1.9259-1.3657-1.3769-.7474-2.2502-.6123-3.4148.4182-.5911.523-1.1522,1.0796-1.7352,1.6121-1.6405,1.4985-3.5094,2.542-5.7407,2.8516-1.0594.147-2.0377.5231-2.9444,1.0751-.2581.1572-.4535.4173-.7931.7399,1.0128.5158,1.9114.9143,2.7482,1.4156.8932.5351,1.728,1.1675,2.7205,1.8481ZM99.5887,34.3269c-.4428-.8601-.8252-1.6158-1.2195-2.3654-.3862-.7343-.5178-1.6009-1.0974-2.3216-1.4274,1.3049-2.7929,2.5133-4.1024,3.7795-.3081.298-.4439.7836-.6306,1.1958-.5402,1.1931-1.0707,2.3908-1.5915,3.5925-.0644.1485-.0468.3325-.0706.5278,2.0427-.4457,6.8652-2.877,8.7119-4.4087ZM273.9294,37.4787c.0703-1.7758.0662-4.4324.1285-6.0054-.1723.6938-.456,2.0016-.573,2.3991-.3086,1.0482-.552,2.1156-.844,3.2648.4277.1134.7144.1893,1.2885.3415Z"/>
  <path class="cls-1" d="M171.3421,86.0529s.4359-1.7557.6706-2.6366c.2204-.8268.4091-1.663.5818-2.5013.429-2.082,1.7766-3.1555,3.8009-3.4776.5844-.093,1.1798-.1159,1.7702-.1712.7213-.0675,1.4436-.1254,2.1636-.2048,1.6619-.1833,3.0146-.887,3.9267-2.3395.2769-.441.5354-.9734,1.1677-.9251.7518.0574.8572.7043,1.0353,1.2708.0986.3137.2157.6241.3533.9227.3906.8472,1.056,1.3218,1.9871,1.4204,2.7043.2863,4.9294-.6135,6.6235-2.7397.8348-1.0477,1.336-2.2641,1.5433-3.5935.1217-.7807.2075-1.5692.3782-2.339.0439-.1981.3281-.4381.5366-.4781.211-.0406.5588.0754.68.2432.2217.3068.3858.6898.458,1.0634.1748.9045.2833,1.8218.4177,2.7341.0846.5743.3054,1.7368.5758,1.756s.4219-.5219.5259-.8021c.4122-1.1099.8424-2.2182,1.1634-3.356,1.2721-4.5088,2.1693-9.0955,2.7364-13.7458.1754-1.4381.3187-2.8801.4908-4.3186.0704-.5881.1596-1.1755.2761-1.7561.0701-.3492.3369-.6631.6775-.5541.2461.0787.5247.4306.5666.6957.0916.5793.0466,1.1809.0485,1.7735.0139,4.2837-.0256,8.5682.0571,12.8506.0483,2.5012.2948,4.9984.4452,7.4978.2573,4.2752.5056,8.5511.769,12.8259.0266.4316.1307,1.1565.3133,1.8502.0803-.2064.3505-.9422.3864-1.156.3598-2.1429.8225-4.2768,1.0325-6.435.4977-5.1146.9148-10.2381,1.2842-15.3638.2414-3.351.3346-6.7126.5132-10.0684.0348-.6544.1216-1.3119.2597-1.9517.0445-.2061.3009-.4473.5122-.5184.3657-.1231.6299.1505.7574.4624.1988.4862.3137,1.0064.5082,1.4947.5109,1.2826.9826,2.5864,1.5854,3.8255.8934,1.8365,2.3182,3.181,4.1622,4.0708.2359.1139.9754.1649,1.2553.1649.3835,0,.2128.7436.4319,1.1732-1.95.3556-3.773-.3537-5.0601-1.4462-1.2504-1.0615-2.0274-2.488-3.0573-3.8414-.0412.3688-.1009.7366-.1208,1.1066-.2936,5.4617-.51,10.9287-.8936,16.3839-.3324,4.7296-.7466,9.4609-1.9326,14.0789-.1638.6378-.3215,1.2787-.5254,1.9041-.1212.3715-.2717.7604-.5127,1.0573-.1858.2289-.5411.4605-.8066.4449-.26-.0153-.5895-.2926-.7298-.5436-.1853-.3315-.2527-.7442-.3064-1.131-.1815-1.3045-.3459-2.6116-.4962-3.92-.4216-3.6684-.6465-7.3481-.7399-11.0409-.0965-3.8202-.3036-7.6376-.4729-11.4558-.0077-.1727-.0389-1.3233-.1479-1.9975-.1527.5595-.4025,1.8495-.4503,2.0596-.3789,1.6698-.6831,3.3596-1.1371,5.0084-.4532,1.646-1.0327,3.2588-1.6017,4.8703-.1728.4895-.4522.9567-.7563,1.3816-.7949,1.111-1.842,1.061-2.4876-.1134-.2788-.5072-.3308-1.5477-.7115-1.5743s-.5768.5421-.7535.8426c-1.7227,2.9312-4.3737,4.3165-7.6708,4.4831-1.6588.0838-3.1195-.4853-3.9751-2.0774-.0928-.1726-.2075-.3342-.3219-.494-.0364-.0508-.1042-.0791-.1577-.1179-.1127.0565-.2569.0858-.3334.1739-1.4044,1.6167-3.2982,2.0839-5.3102,2.2606-.524.0461-1.056.0007-1.5805.0443-.5884.049-1.1754.1335-1.7575.2345-1.0088.1751-1.6561.7676-1.9153,1.7618-.2491.9556-.477,1.9166-.7276,2.8717-.2673,1.0185-.4914,2.0542-.8471,3.0418-.241.6694-.608,1.3213-1.0415,1.8867-.6058.7901-1.5416.6081-1.8033-.3247-.1767-.6298-.2874-1.2903-.3302-1.9434-.2965-4.5369-.5875-9.0744-.8402-13.6139-.1867-3.3541-.3788-6.989-.5499-10.7428-.275,1.0879-.3792,1.7188-.4956,2.2796-.9522,4.5885-2.3235,9.0557-3.907,13.461-.5815,1.6178-1.3267,3.1541-2.2416,4.6122-1.9453,3.1-4.7372,4.6698-8.3958,4.6966-.6591.0048-1.3196.0237-1.977-.0113-1.8424-.0982-3.6857-.1946-5.5239-.3487-.6466-.0542-1.1424-.1223-1.7676-.3134-.2474-.0756-.4193-.3024-.3902-.6028.0235-.2429.1972-.3515.3454-.3942.3747-.108.7717-.1918,1.1595-.1911,1.1194.0018,2.2388.0465,3.358.081,1.7121.0528,3.4244.1644,5.136.1543,2.4579-.0145,4.4472-1.0521,5.9827-2.9691,1.1267-1.4066,1.8944-3.0071,2.5123-4.6831,1.8491-5.0156,3.3349-10.137,4.3187-15.3931.4845-2.5887.8406-5.2013,1.2848-7.7979.1325-.7743.319-1.5482.5834-2.2854.0787-.2195.4077-.4848.6871-.5097.3562-.0316.6694.3581.7092.7087.0593.5221.085,1.0493.1005,1.575.1134,3.821.1743,7.6441.3405,11.4627.2751,6.3202.6144,12.6377.9357,18.9558.0226.4447.1369,1.3812.1369,1.3812,0,0,.0596.6186.1969.6284.151.0108.3438-.6788.3438-.6788Z"/>
  <path class="cls-1" d="M249.0489,69.1861h-25.21c-2.1924,0-3.9756-1.7837-3.9756-3.9756v-15.7563c0-2.1919,1.7832-3.9756,3.9756-3.9756h.7881c.7285,0,1.4238-.3481,1.8613-.9307l3.498-4.6646c.333-.4434.8623-.7075,1.415-.7075h10.085c.5527,0,1.082.2642,1.415.707l3.498,4.6646c.4375.583,1.1338.9312,1.8623.9312h.7871c2.1924,0,3.9756,1.7837,3.9756,3.9756v15.7563c0,2.1919-1.7832,3.9756-3.9756,3.9756ZM223.839,47.127c-1.2832,0-2.3271,1.0439-2.3271,2.3271v15.7563c0,1.2832,1.0439,2.3271,2.3271,2.3271h25.21c1.2832,0,2.3271-1.0439,2.3271-2.3271v-15.7563c0-1.2832-1.0439-2.3271-2.3271-2.3271h-.7871c-1.2441,0-2.4326-.5947-3.1807-1.5903l-3.498-4.6641c-.0234-.0308-.0586-.0483-.0967-.0483h-10.085c-.0381,0-.0742.0181-.0967.0488l-3.498,4.6636c-.7461.9956-1.9346,1.5903-3.1797,1.5903h-.7881Z"/>
  <path class="cls-1" d="M236.4444,62.8833c-3.9297,0-7.127-3.1973-7.127-7.127s3.1973-7.1265,7.127-7.1265,7.127,3.1968,7.127,7.1265-3.1973,7.127-7.127,7.127ZM236.4444,50.2784c-3.0205,0-5.4785,2.4575-5.4785,5.478s2.458,5.4785,5.4785,5.4785,5.4785-2.4575,5.4785-5.4785-2.458-5.478-5.4785-5.478Z"/>
  <g>
    <path class="cls-1" d="M24.1655,90.2229v1.1157h-3.3916v4.813h-1.3291v-10.6958h5.1025v1.1152h-3.7734v3.6519h3.3916Z"/>
    <path class="cls-1" d="M32.4086,95.571c-.4219.3872-1.0771.5806-1.9629.5806h-.5039c-.8867,0-1.541-.1934-1.9639-.5806s-.6338-1.0083-.6338-1.8643v-2.7505c0-.8555.2109-1.4766.6338-1.8638s1.0771-.5811,1.9639-.5811h.5039c.8857,0,1.541.1938,1.9629.5811.4229.3872.6348,1.0083.6348,1.8638v2.7505c0,.856-.2119,1.4771-.6348,1.8643ZM31.4545,89.9172c-.1943-.1729-.4795-.2598-.8564-.2598h-.8096c-.377,0-.6621.0869-.8555.2598-.1934.1733-.29.418-.29.7339v3.3613c0,.3159.0967.5605.29.7334.1934.1733.4785.2598.8555.2598h.8096c.377,0,.6621-.0864.8564-.2598.1934-.1729.29-.4175.29-.7334v-3.3613c0-.3159-.0967-.5605-.29-.7339Z"/>
    <path class="cls-1" d="M37.8256,95.6472c-.2754-.3359-.4121-.7793-.4121-1.3291v-4.6606h-1.4521v-1.146h1.4521v-1.8335h1.2988v1.8335h2.2305v1.146h-2.2305v4.7368c0,.2241.0557.3823.168.4736.1113.0918.2852.1377.5195.1377h1.543v1.146h-1.9258c-.5195,0-.916-.168-1.1914-.5044Z"/>
    <path class="cls-1" d="M48.9106,95.571c-.4219.3872-1.0771.5806-1.9629.5806h-.5039c-.8867,0-1.541-.1934-1.9639-.5806s-.6338-1.0083-.6338-1.8643v-2.7505c0-.8555.2109-1.4766.6338-1.8638s1.0771-.5811,1.9639-.5811h.5039c.8857,0,1.541.1938,1.9629.5811.4229.3872.6348,1.0083.6348,1.8638v2.7505c0,.856-.2119,1.4771-.6348,1.8643ZM47.9565,89.9172c-.1943-.1729-.4795-.2598-.8564-.2598h-.8096c-.377,0-.6621.0869-.8555.2598-.1934.1733-.29.418-.29.7339v3.3613c0,.3159.0967.5605.29.7334.1934.1733.4785.2598.8555.2598h.8096c.377,0,.6621-.0864.8564-.2598.1934-.1729.29-.4175.29-.7334v-3.3613c0-.3159-.0967-.5605-.29-.7339Z"/>
    <path class="cls-1" d="M57.3452,98.237c-.4121.3413-1.0566.5122-1.9326.5122h-3.1787v-1.146h3.3311c.3672,0,.6426-.0713.8252-.2139.1836-.1431.2754-.3262.2754-.5503v-.4888c0-.2344-.0918-.4204-.2754-.5576-.1826-.1377-.458-.2065-.8252-.2065h-2.6426v-2.1084c-.3369-.1836-.5859-.4482-.749-.7949-.1631-.3457-.2441-.7944-.2441-1.3442v-.3823c0-.8555.2109-1.4766.6338-1.8638s1.0771-.5811,1.9629-.5811h3.209v2.8271c0,.7637-.209,1.3623-.626,1.7954-.418.4331-.9736.6494-1.666.6494h-1.2217v.6567h1.1914c.876,0,1.5205.1709,1.9326.5117.4131.3418.6191.8584.6191,1.5513v.1831c0,.6929-.2061,1.2095-.6191,1.5508ZM56.1616,92.3318c.1621-.2036.2539-.4175.2744-.6421v-2.0322h-2.0625c-.377,0-.6621.0869-.8555.2598-.1934.1733-.29.418-.29.7339v.9932c0,.3154.0967.5601.29.7334s.4785.2598.8555.2598h1.0693c.3154,0,.5557-.1021.7188-.3057Z"/>
    <path class="cls-1" d="M61.7231,95.0056v-5.3481h-1.1152v-1.146h2.3379v.4126c.3359-.2749.7432-.4126,1.2217-.4126h1.5742v1.2227h-1.7266c-.3262,0-.5703.1045-.7334.313-.1631.209-.25.4204-.2598.6343v4.3242h1.665v1.146h-4.0791v-1.146h1.1152Z"/>
    <path class="cls-1" d="M73.267,96.0295c-.1582-.0815-.293-.1934-.4053-.3364-.2344.3057-.5449.4585-.9316.4585h-1.3604c-.7744,0-1.3369-.1553-1.6885-.4658-.3516-.311-.5273-.8428-.5273-1.5972v-.3052c0-1.5791.7441-2.3687,2.2314-2.3687h1.8945v-.7637c0-.3159-.0967-.5605-.29-.7339-.1943-.1729-.4795-.2598-.8564-.2598h-2.3682v-1.146h2.2158c.8857,0,1.541.1938,1.9629.5811.4229.3872.6348,1.0083.6348,1.8638v3.6675c0,.1528.0586.2671.1758.3438.1172.0762.3135.1143.5879.1143v1.0698h-.8398c-.1328,0-.2783-.0405-.4355-.1221ZM72.3579,94.7917c.0811-.1426.1221-.3257.1221-.5503v-1.6807h-1.9102c-.2646,0-.4834.0869-.6572.2598-.1729.1733-.2598.3921-.2598.6572v.7637c0,.2651.0615.4585.1836.5811.1221.1221.3154.1831.5811.1831h1.3594c.3057,0,.499-.0713.5811-.2139Z"/>
    <path class="cls-1" d="M79.8374,86.7317c-.0977.0864-.1455.1963-.1455.3286v1.4512h2.46v1.146h-2.46v5.3481h1.8486v1.146h-4.4463v-1.146h1.2988v-5.3481h-1.2988v-1.146h1.2988v-1.375c0-.5195.1475-.9292.4434-1.23.2949-.3003.6768-.4507,1.1455-.4507h2.3223v1.146h-2.0771c-.1631,0-.293.0435-.3896.1299ZM85.0551,89.6575v-1.146h3.5449v6.4941h2.2617v1.146h-3.5605v-6.4941h-2.2461ZM88.6762,85.4558v1.375h-1.4512v-1.375h1.4512Z"/>
    <path class="cls-1" d="M94.1459,95.5788c-.418-.3823-.626-1.0059-.626-1.8721v-2.7505c0-.876.1885-1.5024.5654-1.8794.376-.3765,1.0029-.5654,1.8789-.5654h.7188c.7227,0,1.2705.2017,1.6426.604.3711.4023.5576.9907.5576,1.7646v1.9863h-4.0645v1.146c0,.3159.0967.5605.29.7334.1934.1733.4785.2598.8555.2598h2.4297v1.146h-2.2764c-.8965,0-1.5537-.1909-1.9717-.5728ZM97.6147,90.5744c0-.2646-.0869-.4839-.2598-.6572-.1729-.1729-.3926-.2598-.6572-.2598h-.8857c-.3672,0-.624.0845-.7715.2524-.1484.168-.2217.415-.2217.7412v1.0693h2.7959v-1.146Z"/>
  </g>
  <g>
    <path class="cls-1" d="M8.8471,69.9162v-6.6509h7.0127v14.73h-7.0127v-4.9668h-1.2363v4.9668H.6186v-14.73h6.9922v6.6509h1.2363Z"/>
    <path class="cls-1" d="M17.0747,71.7175c0-2.167.4932-3.7974,1.4814-4.8921.9873-1.0942,2.6045-1.6411,4.8496-1.6411s3.8086.4546,4.6895,1.3643c.8809.9092,1.3223,2.4014,1.3223,4.4761l-.1074,1.6416h-5.8828v.7246c.3545.0854.874.1279,1.5557.1279,1.4502,0,2.6221-.064,3.5176-.1919l.4473-.064v4.0078c-.1133.0713-.2949.1597-.543.2661-.249.1069-.8428.2451-1.7803.416-.9375.1704-1.9824.2559-3.1338.2559-2.2734,0-3.9111-.54-4.9131-1.6201s-1.5029-2.7036-1.5029-4.8711ZM23.1069,70.7688v.8315h1.2158v-.8315c0-.1841-.0605-.3335-.1816-.4473s-.2705-.1709-.4473-.1709c-.1777,0-.3203.0571-.4268.1709s-.1602.2632-.1602.4473Z"/>
    <path class="cls-1" d="M33.7875,66.4416c-1.0801,0-1.876-.2129-2.3877-.6392-.5117-.4268-.7676-1.1089-.7676-2.0464,0-.938.2588-1.6128.7783-2.0254.5186-.4121,1.3105-.6182,2.377-.6182,2.1309,0,3.1973.8599,3.1973,2.5796,0,.9805-.2637,1.6836-.7891,2.1104-.5254.4263-1.3291.6392-2.4082.6392ZM30.6323,77.9953v-11.0635h6.3525v11.0635h-6.3525Z"/>
    <path class="cls-1" d="M51.5004,77.9953h-5.3721l-.2129-1.5562c-.0566.1567-.1738.3486-.3516.5757-.1777.2275-.3662.4194-.5654.5757-.5254.4116-1.2002.6182-2.0244.6182-1.4922,0-2.6582-.5684-3.4961-1.7056-.8389-1.1367-1.2578-2.7246-1.2578-4.7642s.4268-3.6416,1.2793-4.8071c.8525-1.165,2.0176-1.7476,3.4961-1.7476.4541,0,.8594.0532,1.2148.1597.3545.1064.5967.21.7246.3091l.1914.1494v-3.688h6.374v15.8809ZM44.2524,71.5364v1.7905c0,.1851.0537.334.1602.4478s.249.1704.4268.1704c.1768,0,.3262-.0566.4473-.1704s.1816-.2627.1816-.4478v-1.7905c0-.1704-.0605-.3159-.1816-.437-.1211-.1206-.2666-.1812-.4365-.1812-.1709,0-.3135.0605-.4268.1812-.1143.1211-.1709.2666-.1709.437Z"/>
    <path class="cls-1" d="M55.892,66.4416c-1.0801,0-1.876-.2129-2.3877-.6392-.5117-.4268-.7676-1.1089-.7676-2.0464,0-.938.2588-1.6128.7783-2.0254.5186-.4121,1.3105-.6182,2.377-.6182,2.1309,0,3.1973.8599,3.1973,2.5796,0,.9805-.2637,1.6836-.7891,2.1104-.5254.4263-1.3291.6392-2.4082.6392ZM52.7368,77.9953v-11.0635h6.3525v11.0635h-6.3525Z"/>
    <path class="cls-1" d="M74.6499,63.2654h7.0127v8.1855c0,2.3022-.5859,4.0044-1.7588,5.1055-1.1719,1.1016-3.0371,1.6523-5.5957,1.6523h-.5537c-2.5439,0-4.4023-.5547-5.5742-1.6631-1.1729-1.1084-1.7588-2.8062-1.7588-5.0947v-8.1855h6.9922v8.9746c0,.1846.0566.3301.1699.437.1143.1064.2598.1597.4375.1597s.3262-.0566.4473-.1704.1816-.2559.1816-.4263v-8.9746Z"/>
    <path class="cls-1" d="M82.8784,74.862v-12.7476h6.3945v10.4023h.4482v5.2441c-.7539.2983-1.8018.4478-3.1445.4478s-2.2949-.2773-2.8564-.8315-.8418-1.3926-.8418-2.5151Z"/>
    <path class="cls-1" d="M97.0112,77.9953h-6.3525v-12.5981h5.3506l.2129,1.5562c.0283-.0425.0645-.0991.1064-.1704.043-.0713.1631-.1953.3623-.373s.4268-.3374.6826-.48c.71-.355,1.6055-.5327,2.6855-.5327v6.7788l-3.0479-.2983v6.1177Z"/>
    <path class="cls-1" d="M104.0024,66.4416c-1.0801,0-1.876-.2129-2.3877-.6392-.5117-.4268-.7676-1.1089-.7676-2.0464,0-.938.2588-1.6128.7783-2.0254.5186-.4121,1.3105-.6182,2.377-.6182,2.1309,0,3.1973.8599,3.1973,2.5796,0,.9805-.2637,1.6836-.7891,2.1104-.5254.4263-1.3291.6392-2.4082.6392ZM100.8471,77.9953v-11.0635h6.3525v11.0635h-6.3525Z"/>
    <path class="cls-1" d="M119.8618,77.5691c-.9238.4263-2.5508.6396-4.8818.6396s-4.0039-.5332-5.0195-1.5991c-1.0166-1.0654-1.5244-2.7212-1.5244-4.9668s.5684-3.8828,1.7051-4.9131,2.8428-1.5454,5.1162-1.5454c1.0234,0,1.9189.0708,2.6855.2129.7676.1421,1.2793.2847,1.5352.4263l.3838.2134v5.6274h-4.3701v.938c.2559.0425.6895.064,1.3008.064,1.0225,0,1.9395-.0425,2.75-.1279l.3193-.0215v5.0522Z"/>
    <path class="cls-1" d="M128.3247,77.9953v-6.7573c0-.1704-.0605-.3159-.1816-.437-.1211-.1206-.2666-.1812-.4365-.1812-.1709,0-.3135.0605-.4268.1812-.1143.1211-.1709.2666-.1709.437v6.7573h-6.0322v-15.8809h6.3525v2.686l-.2129,1.833c.0566-.1846.1553-.3691.2979-.5542.1416-.1846.4482-.3799.917-.5859s1.0439-.3091,1.7266-.3091c1.3926,0,2.4404.3833,3.1436,1.1509.7041.7676,1.0557,1.8833,1.0557,3.3467v8.3135h-6.0322Z"/>
  </g>
</svg>