<svg width="314" height="92" viewBox="0 0 314 92" fill="none" xmlns="http://www.w3.org/2000/svg">
<g clip-path="url(#clip0_30_2)">
<path d="M299.617 39.5996V23.7496C299.617 23.3496 299.467 23.0163 299.167 22.7496C298.901 22.4496 298.567 22.2996 298.167 22.2996C297.767 22.2996 297.434 22.4496 297.167 22.7496C296.901 23.0163 296.767 23.3496 296.767 23.7496V39.5996H282.617V2.34961L297.517 2.34961V8.64961L297.017 12.9496C297.151 12.5163 297.384 12.0829 297.717 11.6496C298.05 11.2163 298.767 10.7663 299.867 10.2996C300.967 9.79961 302.317 9.54961 303.917 9.54961C307.184 9.54961 309.634 10.4496 311.267 12.2496C312.934 14.0496 313.767 16.6663 313.767 20.0996V39.5996H299.617Z" fill="white"/>
<path d="M279.779 38.6008C277.612 39.6008 273.795 40.1008 268.328 40.1008C262.862 40.1008 258.929 38.8508 256.529 36.3508C254.162 33.8508 252.979 29.9674 252.979 24.7008C252.979 19.4341 254.312 15.6008 256.979 13.2008C259.645 10.7674 263.645 9.55078 268.979 9.55078C271.379 9.55078 273.479 9.71745 275.279 10.0508C277.079 10.3841 278.279 10.7174 278.879 11.0508L279.779 11.5508V24.7508H269.529V26.9508C270.129 27.0508 271.145 27.1008 272.578 27.1008C274.978 27.1008 277.129 27.0008 279.029 26.8008L279.779 26.7508V38.6008Z" fill="white"/>
<path d="M242.556 12.5C240.023 12.5 238.156 12 236.956 11C235.756 10 235.156 8.4 235.156 6.2C235.156 4 235.756 2.41667 236.956 1.45C238.19 0.483333 240.056 0 242.556 0C247.556 0 250.056 2.01667 250.056 6.05C250.056 8.35 249.44 10 248.206 11C246.973 12 245.09 12.5 242.556 12.5ZM235.156 39.6V13.65H250.056V39.6H235.156Z" fill="white"/>
<path d="M226.179 39.6008H211.279V10.0508H223.829L224.329 13.7008C224.396 13.6008 224.479 13.4674 224.579 13.3008C224.679 13.1341 224.963 12.8508 225.429 12.4508C225.896 12.0174 226.429 11.6341 227.029 11.3008C228.696 10.4674 230.796 10.0508 233.329 10.0508V25.9508L226.179 25.2508V39.6008Z" fill="white"/>
<path d="M193.018 32.2496V2.34961L208.018 2.34961V26.7496H209.068V39.0496C207.301 39.7496 204.834 40.0996 201.668 40.0996C198.534 40.0996 196.301 39.4496 194.968 38.1496C193.668 36.8496 193.018 34.8829 193.018 32.2496Z" fill="white"/>
<path d="M173.695 5.05078L190.145 5.05078V24.2508C190.145 29.6508 188.761 33.6508 185.995 36.2508C183.261 38.8175 178.895 40.1008 172.895 40.1008H171.595C165.628 40.1008 161.261 38.8008 158.495 36.2008C155.761 33.6008 154.395 29.6174 154.395 24.2508V5.05078L170.795 5.05078V26.1008C170.795 26.5341 170.928 26.8841 171.195 27.1508C171.461 27.3841 171.795 27.5008 172.195 27.5008C172.628 27.5008 172.978 27.3675 173.245 27.1008C173.545 26.8341 173.695 26.5008 173.695 26.1008V5.05078Z" fill="white"/>
<path d="M129.666 12.5C127.132 12.5 125.266 12 124.066 11C122.866 10 122.266 8.4 122.266 6.2C122.266 4 122.866 2.41667 124.066 1.45C125.299 0.483333 127.166 0 129.666 0C134.666 0 137.166 2.01667 137.166 6.05C137.166 8.35 136.549 10 135.316 11C134.082 12 132.199 12.5 129.666 12.5ZM122.266 39.6V13.65H137.166V39.6H122.266Z" fill="white"/>
<path d="M119.382 39.5996H106.782L106.282 35.9496C106.149 36.3163 105.866 36.7663 105.432 37.2996C105.032 37.8329 104.599 38.2829 104.132 38.6496C102.899 39.6163 101.316 40.0996 99.3824 40.0996C95.8824 40.0996 93.1491 38.7663 91.1824 36.0996C89.2158 33.4329 88.2324 29.7163 88.2324 24.9496C88.2324 20.1496 89.2324 16.3829 91.2324 13.6496C93.2324 10.9163 95.9658 9.54961 99.4324 9.54961C100.499 9.54961 101.449 9.68294 102.282 9.94961C103.116 10.1829 103.682 10.4163 103.982 10.6496L104.432 10.9996V2.34961L119.382 2.34961V39.5996ZM102.382 24.4496V28.6496C102.382 29.0829 102.499 29.4329 102.732 29.6996C102.999 29.9663 103.332 30.0996 103.732 30.0996C104.166 30.0996 104.516 29.9663 104.782 29.6996C105.082 29.4329 105.232 29.0829 105.232 28.6496V24.4496C105.232 24.0496 105.082 23.7163 104.782 23.4496C104.516 23.1496 104.182 22.9996 103.782 22.9996C103.382 22.9996 103.049 23.1496 102.782 23.4496C102.516 23.7163 102.382 24.0496 102.382 24.4496Z" fill="white"/>
<path d="M77.8102 12.5C75.2768 12.5 73.4102 12 72.2102 11C71.0102 10 70.4102 8.4 70.4102 6.2C70.4102 4 71.0102 2.41667 72.2102 1.45C73.4435 0.483333 75.3102 0 77.8102 0C82.8102 0 85.3102 2.01667 85.3102 6.05C85.3102 8.35 84.6935 10 83.4602 11C82.2268 12 80.3435 12.5 77.8102 12.5ZM70.4102 39.6V13.65H85.3102V39.6H70.4102Z" fill="white"/>
<path d="M38.623 24.9008C38.623 19.8008 39.7731 15.9674 42.0731 13.4008C44.4064 10.8341 48.2064 9.55078 53.4731 9.55078C58.7397 9.55078 62.4064 10.6174 64.4731 12.7508C66.5397 14.8841 67.5731 18.3841 67.5731 23.2508L67.3231 27.1008H53.523V28.8008C54.3564 29.0008 55.5731 29.1008 57.173 29.1008C60.5731 29.1008 63.3231 28.9508 65.423 28.6508L66.4731 28.5008V37.9008C66.2064 38.0674 65.7731 38.2841 65.173 38.5508C64.6064 38.7841 63.223 39.1008 61.023 39.5008C58.823 39.9008 56.373 40.1008 53.673 40.1008C48.3397 40.1008 44.4897 38.8341 42.123 36.3008C39.7897 33.7674 38.623 29.9674 38.623 24.9008ZM52.773 22.6508V24.6008H55.6231V22.6508C55.6231 22.2174 55.4731 21.8674 55.173 21.6008C54.9064 21.3341 54.5564 21.2008 54.1231 21.2008C53.7231 21.2008 53.3897 21.3341 53.123 21.6008C52.8897 21.8674 52.773 22.2174 52.773 22.6508Z" fill="white"/>
<path d="M19.3 20.6508V5.05078L35.75 5.05078V39.6008H19.3V27.9508H16.4V39.6008H0L0 5.05078L16.4 5.05078V20.6508H19.3Z" fill="white"/>
<path d="M283.193 91.6035C280.996 91.6035 279.092 91.1885 277.48 90.3584C275.869 89.512 274.616 88.3809 273.721 86.9648C272.842 85.5488 272.402 83.9945 272.402 82.3018V67.458C272.402 65.749 272.842 64.1947 273.721 62.7949C274.616 61.3789 275.869 60.2559 277.48 59.4258C279.092 58.5794 280.996 58.1562 283.193 58.1562H290.713C292.91 58.1562 294.814 58.5794 296.426 59.4258C298.053 60.2559 299.307 61.3789 300.186 62.7949C301.064 64.1947 301.504 65.749 301.504 67.458V82.3018C301.504 83.9945 301.064 85.5488 300.186 86.9648C299.307 88.3809 298.053 89.512 296.426 90.3584C294.814 91.1885 292.91 91.6035 290.713 91.6035H283.193ZM282.314 80.5439H294.595V77.9561H284.854V71.7549H293.008V69.1914H284.854V62.9414H294.253V60.3535H282.314V80.5439Z" fill="white"/>
<path d="M254.287 91.6035C252.09 91.6035 250.186 91.1885 248.574 90.3584C246.963 89.512 245.71 88.3809 244.814 86.9648C243.936 85.5488 243.496 83.9945 243.496 82.3018V67.458C243.496 65.749 243.936 64.1947 244.814 62.7949C245.71 61.3789 246.963 60.2559 248.574 59.4258C250.186 58.5794 252.09 58.1562 254.287 58.1562H261.807C264.004 58.1562 265.908 58.5794 267.52 59.4258C269.147 60.2559 270.4 61.3789 271.279 62.7949C272.158 64.1947 272.598 65.749 272.598 67.458V82.3018C272.598 83.9945 272.158 85.5488 271.279 86.9648C270.4 88.3809 269.147 89.512 267.52 90.3584C265.908 91.1885 264.004 91.6035 261.807 91.6035H254.287ZM252.334 80.5439H266.445V77.9561H260.708V62.9414H266.445V60.3535H252.334V62.9414H258.096V77.9561H252.334V80.5439Z" fill="white"/>
<path d="M225.381 91.6035C223.184 91.6035 221.279 91.1885 219.668 90.3584C218.057 89.512 216.803 88.3809 215.908 86.9648C215.029 85.5488 214.59 83.9945 214.59 82.3018V67.458C214.59 65.749 215.029 64.1947 215.908 62.7949C216.803 61.3789 218.057 60.2559 219.668 59.4258C221.279 58.5794 223.184 58.1562 225.381 58.1562H232.9C235.098 58.1562 237.002 58.5794 238.613 59.4258C240.241 60.2559 241.494 61.3789 242.373 62.7949C243.252 64.1947 243.691 65.749 243.691 67.458V82.3018C243.691 83.9945 243.252 85.5488 242.373 86.9648C241.494 88.3809 240.241 89.512 238.613 90.3584C237.002 91.1885 235.098 91.6035 232.9 91.6035H225.381ZM224.38 80.5439H226.992V71.3154H235.146V68.752H226.992V62.9414H236.538V60.3535H224.38V80.5439Z" fill="white"/>
<path d="M196.475 91.6035C194.277 91.6035 192.373 91.1885 190.762 90.3584C189.15 89.512 187.897 88.3809 187.002 86.9648C186.123 85.5488 185.684 83.9945 185.684 82.3018V67.458C185.684 65.749 186.123 64.1947 187.002 62.7949C187.897 61.3789 189.15 60.2559 190.762 59.4258C192.373 58.5794 194.277 58.1562 196.475 58.1562H203.994C206.191 58.1562 208.096 58.5794 209.707 59.4258C211.335 60.2559 212.588 61.3789 213.467 62.7949C214.346 64.1947 214.785 65.749 214.785 67.458V82.3018C214.785 83.9945 214.346 85.5488 213.467 86.9648C212.588 88.3809 211.335 89.512 209.707 90.3584C208.096 91.1885 206.191 91.6035 203.994 91.6035H196.475ZM192.983 80.5439H195.889L196.523 73.0977H205.532L206.24 80.5439H209.023L207.095 62.3555L205.581 60.8418L202.334 60.3535H199.722L196.475 60.8418L194.985 62.3555L192.983 80.5439ZM196.743 70.7539L197.476 63.3076L199.844 62.9414H202.236L204.531 63.3076L205.337 70.7539H196.743Z" fill="white"/>
<path d="M167.568 91.6035C165.371 91.6035 163.467 91.1885 161.855 90.3584C160.244 89.512 158.991 88.3809 158.096 86.9648C157.217 85.5488 156.777 83.9945 156.777 82.3018V67.458C156.777 65.749 157.217 64.1947 158.096 62.7949C158.991 61.3789 160.244 60.2559 161.855 59.4258C163.467 58.5794 165.371 58.1562 167.568 58.1562H175.088C177.285 58.1562 179.189 58.5794 180.801 59.4258C182.428 60.2559 183.682 61.3789 184.561 62.7949C185.439 64.1947 185.879 65.749 185.879 67.458V82.3018C185.879 83.9945 185.439 85.5488 184.561 86.9648C183.682 88.3809 182.428 89.512 180.801 90.3584C179.189 91.1885 177.285 91.6035 175.088 91.6035H167.568ZM165.273 80.5439H167.886V72.4141H174.233L175.967 73.1953L176.333 74.5137V80.5439H178.921V74.2451L178.066 71.999L175.283 70.998L177.969 69.7041L178.726 67.5068V64.7969L178.433 62.7461L176.821 60.6953L174.38 60.3535H165.273V80.5439ZM167.886 69.8018V62.9414H174.233L175.967 63.6982L176.138 65.1143V67.7021L175.771 69.0449L174.233 69.8018H167.886Z" fill="white"/>
<path d="M138.662 91.6035C136.465 91.6035 134.561 91.1885 132.949 90.3584C131.338 89.512 130.085 88.3809 129.189 86.9648C128.311 85.5488 127.871 83.9945 127.871 82.3018V67.458C127.871 65.749 128.311 64.1947 129.189 62.7949C130.085 61.3789 131.338 60.2559 132.949 59.4258C134.561 58.5794 136.465 58.1562 138.662 58.1562H146.182C148.379 58.1562 150.283 58.5794 151.895 59.4258C153.522 60.2559 154.775 61.3789 155.654 62.7949C156.533 64.1947 156.973 65.749 156.973 67.458V82.3018C156.973 83.9945 156.533 85.5488 155.654 86.9648C154.775 88.3809 153.522 89.512 151.895 90.3584C150.283 91.1885 148.379 91.6035 146.182 91.6035H138.662ZM140.713 80.5439H146.816L149.282 80.251L150.869 78.7129L151.211 76.6133V70.1924H144.131V72.8047H148.623V76.2471C148.542 76.5075 148.485 76.7516 148.452 76.9795C148.42 77.2074 148.363 77.4515 148.281 77.7119L146.67 77.9561H140.762L139.272 77.7119L138.931 76.1494V64.6016L139.175 63.2588L140.762 62.8926H147.109L149.624 63.3076L150.112 60.6953L147.28 60.3535H140.713L138.223 60.7441L136.66 62.3066L136.318 64.3574V76.6133L136.66 78.7129L138.271 80.251L140.713 80.5439Z" fill="white"/>
<path d="M109.756 91.6035C107.559 91.6035 105.654 91.1885 104.043 90.3584C102.432 89.512 101.178 88.3809 100.283 86.9648C99.4043 85.5488 98.9648 83.9945 98.9648 82.3018V67.458C98.9648 65.749 99.4043 64.1947 100.283 62.7949C101.178 61.3789 102.432 60.2559 104.043 59.4258C105.654 58.5794 107.559 58.1562 109.756 58.1562H117.275C119.473 58.1562 121.377 58.5794 122.988 59.4258C124.616 60.2559 125.869 61.3789 126.748 62.7949C127.627 64.1947 128.066 65.749 128.066 67.458V82.3018C128.066 83.9945 127.627 85.5488 126.748 86.9648C125.869 88.3809 124.616 89.512 122.988 90.3584C121.377 91.1885 119.473 91.6035 117.275 91.6035H109.756ZM111.367 80.5439H117.91L120.425 80.251L121.963 78.7129L122.305 76.6133V64.3086L121.963 62.2578L120.425 60.6953L117.91 60.3535H111.367L108.877 60.6953L107.314 62.2578L107.021 64.3086V76.6133L107.314 78.7129L108.926 80.251L111.367 80.5439ZM111.514 77.9561L109.927 77.7119L109.561 76.2471V64.5527L109.805 63.21L111.514 62.9414H117.764L119.473 63.21L119.717 64.6504V76.3447L119.375 77.7119L117.764 77.9561H111.514Z" fill="white"/>
<path d="M80.8496 91.6035C78.6523 91.6035 76.748 91.1885 75.1367 90.3584C73.5254 89.512 72.2721 88.3809 71.377 86.9648C70.498 85.5488 70.0586 83.9945 70.0586 82.3018V67.458C70.0586 65.749 70.498 64.1947 71.377 62.7949C72.2721 61.3789 73.5254 60.2559 75.1367 59.4258C76.748 58.5794 78.6523 58.1562 80.8496 58.1562H88.3691C90.5664 58.1562 92.4707 58.5794 94.082 59.4258C95.7096 60.2559 96.9629 61.3789 97.8418 62.7949C98.7207 64.1947 99.1602 65.749 99.1602 67.458V82.3018C99.1602 83.9945 98.7207 85.5488 97.8418 86.9648C96.9629 88.3809 95.7096 89.512 94.082 90.3584C92.4707 91.1885 90.5664 91.6035 88.3691 91.6035H80.8496ZM84.6582 80.5439H87.2705V62.9414H93.0078V60.3535H78.8965V62.9414H84.6582V80.5439Z" fill="white"/>
<path d="M51.9434 91.6035C49.7461 91.6035 47.8418 91.1885 46.2305 90.3584C44.6191 89.512 43.3659 88.3809 42.4707 86.9648C41.5918 85.5488 41.1523 83.9945 41.1523 82.3018V67.458C41.1523 65.749 41.5918 64.1947 42.4707 62.7949C43.3659 61.3789 44.6191 60.2559 46.2305 59.4258C47.8418 58.5794 49.7461 58.1562 51.9434 58.1562H59.4629C61.6602 58.1562 63.5645 58.5794 65.1758 59.4258C66.8034 60.2559 68.0566 61.3789 68.9355 62.7949C69.8145 64.1947 70.2539 65.749 70.2539 67.458V82.3018C70.2539 83.9945 69.8145 85.5488 68.9355 86.9648C68.0566 88.3809 66.8034 89.512 65.1758 90.3584C63.5645 91.1885 61.6602 91.6035 59.4629 91.6035H51.9434ZM53.5547 80.5439H60.0977L62.6123 80.251L64.1504 78.7129L64.4922 76.6133V64.3086L64.1504 62.2578L62.6123 60.6953L60.0977 60.3535H53.5547L51.0645 60.6953L49.502 62.2578L49.209 64.3086V76.6133L49.502 78.7129L51.1133 80.251L53.5547 80.5439ZM53.7012 77.9561L52.1143 77.7119L51.748 76.2471V64.5527L51.9922 63.21L53.7012 62.9414H59.9512L61.6602 63.21L61.9043 64.6504V76.3447L61.5625 77.7119L59.9512 77.9561H53.7012Z" fill="white"/>
<path d="M23.0371 91.6035C20.8398 91.6035 18.9355 91.1885 17.3242 90.3584C15.7129 89.512 14.4596 88.3809 13.5645 86.9648C12.6855 85.5488 12.2461 83.9945 12.2461 82.3018L12.2461 67.458C12.2461 65.749 12.6855 64.1947 13.5645 62.7949C14.4596 61.3789 15.7129 60.2559 17.3242 59.4258C18.9355 58.5794 20.8398 58.1562 23.0371 58.1562H30.5566C32.7539 58.1562 34.6582 58.5794 36.2695 59.4258C37.8971 60.2559 39.1504 61.3789 40.0293 62.7949C40.9082 64.1947 41.3477 65.749 41.3477 67.458V82.3018C41.3477 83.9945 40.9082 85.5488 40.0293 86.9648C39.1504 88.3809 37.8971 89.512 36.2695 90.3584C34.6582 91.1885 32.7539 91.6035 30.5566 91.6035H23.0371ZM22.0361 80.5439H24.6484V71.3154H32.8027V68.752H24.6484V62.9414H34.1943V60.3535H22.0361V80.5439Z" fill="white"/>
</g>
<defs>
<clipPath id="clip0_30_2">
<rect width="314" height="92" fill="white"/>
</clipPath>
</defs>
</svg>
