<?xml version="1.0" encoding="UTF-8"?>
<svg id="Ebene_1" xmlns="http://www.w3.org/2000/svg" viewBox="0 0 1133.53 1151.95">
  <defs>
    <style>
      .cls-1 {
        fill: #e5cee6;
      }
    </style>
  </defs>
  <path class="cls-1" d="M639.78,0l15.52,206.72-103.21,7.75-5.62-74.79-10.56,35.69-7.78.58-16.37-33.67,5.61,74.79-102.91,7.73-15.52-206.72,102.91-7.73,16.75,38.75,7.78-.58,10.18-40.78,103.21-7.75Z"/>
  <path class="cls-1" d="M807.24,55.54l139.45,93.69-48.69,72.46-53.79-36.14-6.69,9.96,53.79,36.14-10.54,15.69-53.79-36.14-6.69,9.96,56.03,37.65-43,64-141.69-95.2,115.61-172.07Z"/>
  <path class="cls-1" d="M856.76,361.57l183.96-95.57,47.58,91.58-183.96,95.57-47.58-91.58Z"/>
  <path class="cls-1" d="M1133.53,506.69l-6.17,91.59-62.93,14.7,61.66,4.15-6.21,92.19-206.83-13.93,6.21-92.19,61.53-11.79-60.46-4.07,6.37-94.59,206.83,13.93Z"/>
  <path class="cls-1" d="M1053.86,863.95l-106.61,129.84-67.47-55.4,41.12-50.08-9.27-7.61-41.12,50.08-14.61-11.99,41.12-50.08-9.27-7.61-42.83,52.17-59.59-48.92,108.32-131.93,160.22,131.54Z"/>
  <path class="cls-1" d="M392.29,905.57l105.38,17.38-4.54,57.02,6.22,1.03,13.72-55.51,103.9,17.14-4.73,209.32-90.28-14.89,8.32-98.36-6.22-1.03-22.29,90.88-59.79-9.86,7.19-93.38-6.51-1.07-23.41,95.87-89.1-14.7,62.16-199.85Z"/>
  <path class="cls-1" d="M183.29,997.61l-107.27-129.29,67.19-55.74,41.38,49.87,9.24-7.66-41.38-49.87,14.54-12.07,41.38,49.87,9.24-7.66-43.1-51.95,59.34-49.23,109,131.37-159.54,132.37Z"/>
  <path class="cls-1" d="M15.69,723.93L0,621.93l128.69-19.79-4.65-30.24,76.2-11.72,20.34,132.25-204.89,31.51Z"/>
  <path class="cls-1" d="M85.6,482.3L4.42,450.2l67.96-171.85,81.18,32.1-13.46,34.04,111.59,44.13-41.26,104.34-111.59-44.13-13.24,33.48Z"/>
</svg>